<?xml version="1.0" encoding="utf-8"?>
<!-- Generator: Adobe Illustrator 24.2.0, SVG Export Plug-In . SVG Version: 6.00 Build 0)  -->
<svg version="1.1" id="Layer_1" xmlns="http://www.w3.org/2000/svg" xmlns:xlink="http://www.w3.org/1999/xlink" x="0px" y="0px"
	 viewBox="0 0 332.1 144.37" style="enable-background:new 0 0 332.1 144.37;" xml:space="preserve">
<style type="text/css">
	.st0{fill:#DB0032;}
</style>
<g>
	<path class="st0" d="M32.23,50.05h0.22c3.77-6.79,10.24-9.8,17.88-9.8h3.77V59.1c-2.69-1.51-5.28-1.83-8.3-1.83
		c-10.88,0-13.58,7.22-13.58,16.7v22.31H12.62V41h19.61V50.05"/>
	<path class="st0" d="M115.4,96.28H95.8v-6.14h-0.22c-3.45,5.5-10.24,7.97-16.71,7.97c-16.37,0-27.9-13.69-27.9-29.53
		c0-15.83,11.31-29.41,27.69-29.41c6.35,0,13.04,2.37,17.13,7.22V41h19.61V96.28z M71.22,68.69c0,7.01,4.64,12.39,12.61,12.39
		s12.61-5.39,12.61-12.39c0-6.79-4.63-12.5-12.61-12.5S71.22,61.9,71.22,68.69"/>
	<path class="st0" d="M140.94,47.25h0.21c3.56-5.49,10.24-8.08,16.7-8.08c16.49,0,27.91,13.79,27.91,29.63
		c0,15.95-11.32,29.31-27.7,29.31c-6.35,0-12.93-2.27-17.13-7.12v45.72h-19.61V41h19.61V47.25z M140.29,68.69
		c0,7.01,4.63,12.39,12.61,12.39c7.97,0,12.61-5.39,12.61-12.39c0-6.79-4.64-12.5-12.61-12.5C144.92,56.19,140.29,61.9,140.29,68.69
		"/>
	<path class="st0" d="M188.98,41h19.61v55.28h-19.61V41z M209.78,19.77c0,6.03-4.96,10.99-10.99,10.99
		c-6.03,0-10.99-4.96-10.99-10.99c0-6.03,4.96-11,10.99-11C204.82,8.78,209.78,13.74,209.78,19.77"/>
	<path class="st0" d="M256.63,90.14h-0.21c-3.45,5.5-10.24,7.97-16.71,7.97c-16.38,0-27.91-13.69-27.91-29.53
		c0-15.83,11.32-29.41,27.69-29.41c6.35,0,13.04,2.37,17.13,7.22V3.5h19.61v92.78h-19.61V90.14z M232.06,68.69
		c0,7.01,4.63,12.39,12.61,12.39c7.97,0,12.61-5.39,12.61-12.39c0-6.79-4.64-12.5-12.61-12.5C236.69,56.19,232.06,61.9,232.06,68.69
		"/>
	<path class="st0" d="M308.88,85.82c0,6.9-5.6,12.61-12.61,12.61s-12.61-5.71-12.61-12.61c0-7.01,5.6-12.61,12.61-12.61
		S308.88,78.82,308.88,85.82 M286.14,3.51h20.37V68.7h-20.37V3.51z"/>
	<g>
		<path class="st0" d="M318.44,10.94c-0.83,0.83-1.83,1.25-3.01,1.25s-2.17-0.42-3-1.25c-0.82-0.83-1.23-1.83-1.23-3.01
			c0-1.17,0.41-2.16,1.24-2.99c0.82-0.82,1.82-1.24,2.98-1.24c1.18,0,2.17,0.41,3.01,1.24c0.83,0.82,1.24,1.82,1.24,2.99
			C319.67,9.11,319.26,10.11,318.44,10.94z M312.85,5.36c-0.71,0.71-1.06,1.57-1.06,2.58c0,1.02,0.35,1.88,1.06,2.6
			c0.71,0.72,1.57,1.07,2.58,1.07s1.88-0.36,2.58-1.07c0.71-0.72,1.06-1.58,1.06-2.6c0-1.01-0.35-1.87-1.06-2.58
			c-0.71-0.72-1.57-1.08-2.58-1.08C314.43,4.28,313.57,4.64,312.85,5.36z M315.35,5.6c0.58,0,1,0.05,1.27,0.17
			c0.48,0.2,0.72,0.59,0.72,1.18c0,0.42-0.15,0.72-0.45,0.92c-0.16,0.1-0.39,0.18-0.67,0.23c0.36,0.06,0.63,0.21,0.8,0.46
			c0.17,0.25,0.25,0.49,0.25,0.72V9.6c0,0.11,0,0.22,0.01,0.35c0.01,0.12,0.02,0.2,0.04,0.24l0.03,0.06h-0.77
			c0-0.01,0-0.03-0.01-0.05c0-0.02-0.01-0.03-0.01-0.05L316.54,10V9.64c0-0.54-0.15-0.89-0.44-1.07c-0.17-0.1-0.47-0.15-0.91-0.15
			h-0.65v1.83h-0.82V5.6H315.35z M316.23,6.33c-0.2-0.12-0.54-0.17-0.99-0.17h-0.7v1.69h0.74c0.35,0,0.61-0.04,0.78-0.1
			c0.32-0.13,0.48-0.37,0.48-0.73C316.55,6.67,316.44,6.44,316.23,6.33z"/>
	</g>
</g>
</svg>
